<?xml version="1.0" encoding="UTF-8"?>
<svg id="Layer_1" xmlns="http://www.w3.org/2000/svg" version="1.1" viewBox="0 0 180 180">
  <!-- Generator: Adobe Illustrator 30.1.0, SVG Export Plug-In . SVG Version: 2.1.1 Build 136)  -->
  <defs>
    <style>
      .st0 {
        fill: #d99f9f;
      }

      .st1 {
        fill: #900;
      }

      .st2 {
        fill: #eacccc;
      }

      .st3 {
        fill: #8b97b1;
      }

      .st4 {
        fill: #860808;
      }

      .st5 {
        fill: #a9a2ad;
      }

      .st6 {
        fill: #770505;
      }

      .st7 {
        fill: #560809;
      }

      .st8 {
        fill: #deacac;
      }

      .st9 {
        fill: #fff;
      }

      .st10 {
        fill: #85464d;
      }

      .st11 {
        fill: #673539;
      }

      .st12 {
        fill: #650303;
      }

      .st13 {
        fill: #a23c3c;
      }

      .st14 {
        fill: #796577;
      }

      .st15 {
        fill: #9e0d0d;
      }

      .st16 {
        fill: #c06161;
      }

      .st17 {
        fill: #7a3638;
      }

      .st18 {
        fill: #b1b9cb;
      }

      .st19 {
        fill: #a28d92;
      }
    </style>
  </defs>
  <rect class="st9" x=".5" y=".5" width="180" height="180"/>
  <g>
    <g>
      <path class="st15" d="M83.3,58.4c3.4-1.3,7-2,10.8-2s8.6,1,12.4,2.7c-1-8.6-4.7-16.9-11-22.8-2.7,9.5-11.4,16.4-21.7,16.4s-2.4,0-3.6-.3c0,.2,0,.4,0,.7.4,0,.7,0,1.1,0,4.7,0,9,2.1,12,5.3Z"/>
      <path class="st18" d="M63.8,83.9c-5.1-2.7-8.6-8.2-8.6-14.5s0-.8,0-1.2c-9.3,2.4-16.2,10.8-16.2,21s2.9,12.5,7.5,16.4c1.7-2.6,4.6-4.2,7.9-4.2,5.1,0,9.3,4,9.6,9.1,2.6-.5,5.1-1.4,7.3-2.7-4.8-5.5-7.8-12.7-7.8-20.6s0-2.2.2-3.4Z"/>
      <path class="st0" d="M69.1,69.5c1.1-1.6,2.4-3.1,3.8-4.5-1.8-3.4-2.8-7.2-2.8-11.3s0-.4,0-.6c-8,.5-14.5,7-15,15.1,1.7-.4,3.4-.7,5.2-.7,3.1,0,6.1.7,8.7,1.9Z"/>
      <path class="st4" d="M73,65c2.9-2.8,6.4-5.1,10.3-6.6-3-3.3-7.2-5.3-12-5.3s-.7,0-1.1,0c0,.2,0,.4,0,.6,0,4.1,1,7.9,2.8,11.3Z"/>
      <path class="st19" d="M63.8,83.9c.6-5.3,2.5-10.2,5.4-14.4-2.7-1.2-5.6-1.9-8.7-1.9s-3.5.2-5.2.7c0,.4,0,.8,0,1.2,0,6.3,3.5,11.7,8.6,14.5Z"/>
      <path class="st8" d="M51.5,33.7c-.5,0-1-.1-1.6-.1-6.1,0-11,5-11,11.1s4.9,11.1,11,11.1,8.9-3.1,10.4-7.5c-4.6-3.4-7.8-8.6-8.8-14.5Z"/>
      <path class="st2" d="M43.6,67.4c0-4.2-3.4-7.6-7.5-7.6s-7.5,3.4-7.5,7.6,3.4,7.6,7.5,7.6,7.5-3.4,7.5-7.6Z"/>
      <path class="st2" d="M46.5,105.7c-1.1,1.6-1.7,3.5-1.7,5.5,0,5.4,4.3,9.7,9.6,9.7s9.6-4.4,9.6-9.7,0-.4,0-.7c-1.2.2-2.4.3-3.7.3-5.3,0-10.1-1.9-13.9-5.2Z"/>
      <path class="st5" d="M54.5,101.4c-3.3,0-6.2,1.7-7.9,4.2,3.7,3.2,8.6,5.2,13.9,5.2s2.5-.1,3.7-.3c-.3-5.1-4.5-9.1-9.6-9.1Z"/>
      <path class="st16" d="M104.8,94.9c1.3,0,2.6,0,3.8.3.5,1-1.2-2.3-2.4-4.4-1.7-3-3-6.3-2.8-9.8.2-3,1.6-6.2,1.2-5-3.1,1.5-6.6,2.3-10.2,2.3s-5.9-.6-8.5-1.6c-1.2,2.4-2.9,4.5-5.1,6.1.6,2.1,1,4.3,1,6.5,0,7.9-4.2,14.8-10.4,18.6,1.7,1.9,3.6,3.6,5.7,5,4.8-10.6,15.4-17.9,27.7-17.9Z"/>
      <path class="st6" d="M83.3,58.4c2.6,2.9,4.2,6.8,4.2,11s-.6,5-1.6,7.1c2.7,1,5.5,1.6,8.5,1.6s7.1-.8,10.2-2.3c.4-1.2.8-2.3,1.1-3.5,1-4.3,1.3-8.8.8-13.3-3.8-1.7-8-2.7-12.4-2.7s-7.4.7-10.8,2Z"/>
      <path class="st10" d="M81.8,89.2c0-2.3-.4-4.5-1-6.5-2.7,1.9-5.9,3.1-9.5,3.1s-5.3-.7-7.6-1.9c-.1,1.1-.2,2.2-.2,3.4,0,7.9,2.9,15.1,7.8,20.6,6.2-3.8,10.4-10.7,10.4-18.6Z"/>
      <path class="st13" d="M73,65c-1.4,1.4-2.7,2.9-3.8,4.5,5.5,2.5,9.8,7.3,11.6,13.2,2.2-1.6,3.9-3.7,5.1-6.1-5.6-2.1-10.2-6.3-12.9-11.6Z"/>
      <path class="st12" d="M83.3,58.4c-3.9,1.5-7.4,3.7-10.3,6.6,2.7,5.3,7.3,9.4,12.9,11.6,1-2.2,1.6-4.6,1.6-7.1,0-4.2-1.6-8.1-4.2-11Z"/>
      <path class="st17" d="M69.1,69.5c-2.9,4.2-4.8,9.1-5.4,14.4,2.3,1.2,4.8,1.9,7.6,1.9s6.8-1.2,9.5-3.1c-1.9-5.9-6.1-10.7-11.6-13.2Z"/>
      <path class="st3" d="M77.1,112.8c-1.8,3.9-2.8,8.3-2.8,12.9s.8,8.2,2.3,11.8c1.7.4,3.8.6,6.1.6s2.9-.4,4.3-.9c2.1-.9,3.3-2.6,3.5-4.8,0-1.4,0-2.9.6-4.2.9-2.3,2.9-3.5,4.8-4.7,2.5-1.6.3-5.4.3-5.4,0,0,0,0,.2,0-.8,0-1.5,0-2.3,0-6.3,0-12.1-1.9-17-5.2Z"/>
      <path class="st11" d="M110.1,99.8c0-.2,0-.4,0-.6,0,0,0-.2,0-.3,0,0,0-.2,0-.3,0-.2,0-.3-.1-.5,0,0,0,0,0,0-.3-1-.7-1.9-1.1-2.9-1.3-.2-2.5-.3-3.8-.3-12.3,0-22.9,7.3-27.7,17.9,4.9,3.3,10.7,5.2,17,5.2s1.5,0,2.3,0c0,0,0,0,0,0,0,0,0,0,.1,0,0,0,0,0,0,0,0,0,0,0,.1,0,0,0,0,0,.2,0,0,0,0,0,0,0,0,0,.2,0,.3-.1,0,0,0,0,0,0,0,0,.2,0,.3-.1,0,0,0,0,0,0,0,0,.2,0,.3-.1,0,0,0,0,0,0,0,0,.2,0,.3-.1,0,0,0,0,0,0,0,0,.2,0,.3-.2,0,0,0,0,0,0,.2-.1.4-.3.6-.4,0,0,0,0,0,0,0,0,.1-.1.2-.2,0,0,0,0,0,0,0,0,.1-.1.2-.2,0,0,0,0,0,0,0,0,0-.1.1-.2,0,0,0,0,0,0,0,0,0-.2.1-.3.4-1.1.1-3.2,0-4.4-.3-2.6-.7-5.4,2.2-6.5,1.4-.5,3.4-.7,5-1.3.2,0,.4-.1.6-.2.6-.3,1.1-.6,1.5-1,.5-.6.8-1.4.7-2.5Z"/>
      <path class="st3" d="M86.8,30.5c1,.5,2,1.1,3,1.6-10.2-6.1-24.5-8.5-37.4-9.4-.8,2.3-1.2,4.7-1.2,7.2s.1,2.6.3,3.8c5.3.8,9.4,5.4,9.4,11s-.2,2.4-.6,3.6c2.9,2.1,6.2,3.6,9.9,4.2.5-10.3,7.3-18.9,16.5-22Z"/>
      <path class="st7" d="M95.5,36.3s0,0-.1-.1c-.2-.2-.5-.4-.7-.6-.5-.5-1.1-.9-1.7-1.4-.4-.3-.8-.6-1.2-.9,0,0-.2-.1-.3-.2-.4-.3-.8-.5-1.3-.8-.1,0-.3-.2-.4-.3-1-.6-2-1.1-3-1.6-9.3,3.1-16,11.7-16.5,22,1.2.2,2.3.3,3.6.3,10.3,0,18.9-6.9,21.7-16.4Z"/>
      <path class="st14" d="M51.5,33.7c1,5.9,4.2,11.1,8.8,14.5.4-1.1.6-2.3.6-3.6,0-5.6-4.1-10.2-9.4-11Z"/>
    </g>
    <path class="st1" d="M152.4,93.6c-.1-.5-.3-1-.5-1.6-.4-1-1-1.9-1.6-2.9-1-1.5-2.2-2.9-3.1-4.2-2.1-2.8-4-6-4.3-9.6,0-.3,0-.6,0-.9,0-2.7.9-5.4,1.2-8.1.4-4.5,0-9.1-1.1-13.6-1.7-6.7-5.2-13-10.1-17.9-12.4-12.4-35.1-16.2-51.8-10.9,0,0,0,0,0,0,.3.1.6.2,1,.4,8,3.1,15.2,8.3,20,14.7,4.2,5.6,6.8,12.5,7.6,19.4.6,4.6.4,9.4-.7,13.9-.6,2.7-1.9,5.3-2.2,8.1,0,.3,0,.6,0,.9,0,.6,0,1.1,0,1.7.2,3,1.5,5.9,3,8.6.8,1.4,1.7,3,2.5,4.6.8,1.6,1.4,3.2,1.5,4.8.4,4.5-5.2,4.2-8,5.3-3,1.2-2.6,4.1-2.2,6.8.2,1.2.5,3.4,0,4.6-.5,1.3-3,2.2-3.8,2.5-.1,0-.2,0-.2,0,0,0,2.3,4-.2,5.7-1.9,1.3-4,2.6-4.9,5-.5,1.4-.5,2.9-.6,4.4-.3,5.1-5.9,6.6-10.1,6.3-3.9-.3,15.9,15.9,23.9,17.9.3-2.2-1.6-21.3,3.8-23.8,2.6-1.2,6.9.7,12.2,1.3.9.1,1.5,0,2.1,0,1.3,0,2.7-.1,4.3-.3,1.5-.2,2.9-.8,4.2-1.6,2-1.2,3-3.1,2.9-5.4-.1-1.4-.4-2.9,0-4.3.6-2.4,2.4-4,4.2-5.5,2.3-2-.5-5.6-.5-5.6,0,0,0,0,.2-.1.8-.3,3.2-1.6,3.5-2.9.3-1.2-.3-3.3-.6-4.5-.7-2.6-1.4-5.4,1.3-6.9,2.6-1.5,8.2-1.8,7.2-6.2Z"/>
  </g>
</svg>