<?xml version="1.0" encoding="UTF-8"?>
<svg id="Layer_1" xmlns="http://www.w3.org/2000/svg" version="1.1" viewBox="0 0 512 512">
  <!-- Generator: Adobe Illustrator 30.1.0, SVG Export Plug-In . SVG Version: 2.1.1 Build 136)  -->
  <defs>
    <style>
      .st0 {
        fill: #d99f9f;
      }

      .st1 {
        fill: #900;
      }

      .st2 {
        fill: #eacccc;
      }

      .st3 {
        fill: #8b97b1;
      }

      .st4 {
        fill: #860808;
      }

      .st5 {
        fill: #a9a2ad;
      }

      .st6 {
        fill: #770505;
      }

      .st7 {
        fill: #560809;
      }

      .st8 {
        fill: #deacac;
      }

      .st9 {
        fill: #fff;
      }

      .st10 {
        fill: #85464d;
      }

      .st11 {
        fill: #673539;
      }

      .st12 {
        fill: #650303;
      }

      .st13 {
        fill: #a23c3c;
      }

      .st14 {
        fill: #796577;
      }

      .st15 {
        fill: #9e0d0d;
      }

      .st16 {
        fill: #c06161;
      }

      .st17 {
        fill: #7a3638;
      }

      .st18 {
        fill: #b1b9cb;
      }

      .st19 {
        fill: #a28d92;
      }
    </style>
  </defs>
  <rect class="st9" x="-.5" y="-.5" width="512" height="512"/>
  <g>
    <g>
      <path class="st15" d="M234.9,164.2c9.5-3.7,19.9-5.7,30.7-5.7s24.6,2.7,35.4,7.6c-2.7-24.5-13.5-48.1-31.4-64.7-7.8,27-32.5,46.7-61.7,46.7s-6.8-.3-10.1-.8c0,.6,0,1.2,0,1.9,1,0,2.1-.1,3.1-.1,13.5,0,25.6,5.8,34,15.2Z"/>
      <path class="st18" d="M179.4,236.7c-14.6-7.8-24.5-23.3-24.5-41.1s0-2.2.1-3.3c-26.4,6.7-46,30.8-46,59.6s8.3,35.5,21.4,46.8c4.9-7.3,13.2-12,22.6-12,14.5,0,26.3,11.4,27.3,25.8,7.4-1.3,14.4-4,20.7-7.7-13.8-15.5-22.1-36-22.1-58.5s.2-6.4.5-9.5Z"/>
      <path class="st0" d="M194.7,195.8c3.2-4.6,6.8-8.9,10.9-12.8-5-9.6-7.8-20.6-7.8-32.2s0-1,0-1.6c-22.9,1.5-41.2,20-42.8,43,4.8-1.2,9.7-1.9,14.8-1.9,8.9,0,17.3,1.9,24.8,5.4Z"/>
      <path class="st4" d="M205.6,183c8.4-8.1,18.3-14.5,29.3-18.8-8.4-9.3-20.5-15.2-34-15.2s-2.1,0-3.1.1c0,.5,0,1,0,1.6,0,11.6,2.8,22.6,7.8,32.2Z"/>
      <path class="st19" d="M179.4,236.7c1.6-15.1,7.1-29.1,15.3-40.9-7.6-3.4-16-5.4-24.8-5.4s-10.1.6-14.8,1.9c0,1.1-.1,2.2-.1,3.3,0,17.8,9.9,33.3,24.5,41.1Z"/>
      <path class="st8" d="M144.7,94.1c-1.5-.2-2.9-.4-4.4-.4-17.2,0-31.2,14.1-31.2,31.5s14,31.5,31.2,31.5,25.3-9,29.5-21.4c-13-9.8-22.3-24.4-25.1-41.3Z"/>
      <path class="st2" d="M122.1,189.7c0-12-9.6-21.7-21.5-21.7s-21.5,9.7-21.5,21.7,9.6,21.7,21.5,21.7,21.5-9.7,21.5-21.7Z"/>
      <path class="st2" d="M130.5,298.7c-3,4.5-4.8,9.8-4.8,15.7,0,15.3,12.3,27.7,27.4,27.7s27.4-12.4,27.4-27.7,0-1.3,0-1.9c-3.4.6-6.9.9-10.5.9-15,0-28.8-5.5-39.4-14.7Z"/>
      <path class="st5" d="M153.1,286.6c-9.4,0-17.7,4.8-22.6,12,10.6,9.1,24.4,14.7,39.4,14.7s7.1-.3,10.5-.9c-1-14.4-12.8-25.8-27.3-25.8Z"/>
      <path class="st16" d="M296.1,268.1c3.7,0,7.3.3,10.9.7,1.3,2.7-3.5-6.6-6.8-12.6-4.7-8.5-8.6-18.1-8-28,.5-8.4,4.5-17.6,3.4-14.3-8.8,4.1-18.6,6.5-29,6.5s-16.8-1.6-24.3-4.5c-3.3,6.9-8.3,12.9-14.4,17.4,1.8,5.9,2.8,12.1,2.8,18.6,0,22.4-11.9,42.1-29.7,52.8,4.8,5.4,10.3,10.3,16.3,14.4,13.7-30.1,43.8-50.9,78.8-50.9Z"/>
      <path class="st6" d="M234.9,164.2c7.5,8.3,12,19.3,12,31.3s-1.7,14.2-4.6,20.3c7.6,2.9,15.8,4.5,24.3,4.5s20.2-2.3,29-6.5c1.1-3.3,2.3-6.6,3.1-10,3-12.2,3.7-25.1,2.3-37.7-10.8-4.9-22.8-7.6-35.4-7.6s-21.2,2-30.7,5.7Z"/>
      <path class="st10" d="M230.7,251.9c0-6.5-1-12.7-2.8-18.6-7.6,5.5-16.9,8.8-26.9,8.8s-15.1-2-21.5-5.4c-.3,3.1-.5,6.3-.5,9.5,0,22.5,8.4,42.9,22.1,58.5,17.8-10.7,29.7-30.4,29.7-52.8Z"/>
      <path class="st13" d="M205.6,183c-4,3.9-7.6,8.2-10.9,12.8,15.7,7.1,27.9,20.7,33.1,37.5,6.1-4.5,11.1-10.4,14.4-17.4-15.9-6.1-28.9-17.9-36.7-32.9Z"/>
      <path class="st12" d="M234.9,164.2c-11,4.2-21,10.7-29.3,18.8,7.8,15,20.9,26.8,36.7,32.9,3-6.1,4.6-13,4.6-20.3,0-12.1-4.6-23.1-12-31.3Z"/>
      <path class="st17" d="M194.7,195.8c-8.3,11.8-13.7,25.8-15.3,40.9,6.4,3.4,13.7,5.4,21.5,5.4s19.4-3.3,26.9-8.8c-5.3-16.7-17.4-30.4-33.1-37.5Z"/>
      <path class="st3" d="M217.4,319c-5.1,11.2-8,23.6-8,36.7s2.4,23.3,6.6,33.7c5,1,10.8,1.7,17.5,1.7s8.3-1,12.1-2.7c5.9-2.5,9.4-7.4,9.9-13.8.3-4,0-8.1,1.6-11.9,2.6-6.4,8.2-9.9,13.6-13.4,7-4.6.7-15.5.7-15.5,0,0,.3,0,.7-.2-2.2.2-4.3.3-6.5.3-17.9,0-34.5-5.5-48.3-14.8Z"/>
      <path class="st11" d="M311.2,281.8c0-.5-.1-1.1-.2-1.6,0-.3-.1-.5-.2-.8,0-.3,0-.5-.2-.8,0-.4-.2-.9-.3-1.3,0,0,0-.2,0-.3-.8-2.7-1.9-5.5-3.2-8.2-3.6-.5-7.2-.7-10.9-.7-34.9,0-65,20.9-78.8,50.9,13.8,9.4,30.4,14.8,48.3,14.8s4.4-.1,6.5-.3c0,0,0,0,0,0,.1,0,.2,0,.4-.1,0,0,.1,0,.2,0,.1,0,.2,0,.3-.1.1,0,.3,0,.4-.1,0,0,.2,0,.3,0,.3,0,.5-.2.8-.3,0,0,0,0,0,0,.3-.1.6-.2.9-.3,0,0,.1,0,.2,0,.2-.1.5-.2.7-.3,0,0,.1,0,.2,0,.2-.1.5-.2.7-.3,0,0,.1,0,.2-.1.3-.1.5-.3.8-.4,0,0,0,0,.1,0,.6-.3,1.2-.7,1.7-1.1,0,0,.1,0,.2-.1.2-.2.4-.3.6-.5,0,0,.1-.1.2-.2.2-.1.3-.3.4-.4,0,0,.1-.2.2-.2.1-.2.2-.3.4-.5,0,0,.1-.1.1-.2.1-.2.3-.5.4-.7,1.2-3.3.4-9.1,0-12.4-.9-7.3-1.9-15.3,6.3-18.5,3.9-1.5,9.6-2,14.3-3.6.6-.2,1.2-.4,1.7-.7,1.6-.7,3.1-1.7,4.1-2.9,1.4-1.7,2.2-3.9,1.9-7Z"/>
      <path class="st3" d="M244.9,84.7c3,1.5,5.8,3,8.6,4.7-29-17.3-69.6-24.1-106.4-26.8-2.1,6.5-3.3,13.4-3.3,20.6s.3,7.3.9,10.9c15.1,2.2,26.8,15.3,26.8,31.2s-.6,7-1.7,10.1c8.1,6.1,17.7,10.3,28.2,12,1.4-29.2,20.6-53.7,47-62.6Z"/>
      <path class="st7" d="M269.7,101.5c-.1,0-.2-.2-.3-.3-.7-.6-1.4-1.2-2-1.8-1.5-1.3-3.1-2.6-4.7-3.9-1.1-.9-2.3-1.7-3.5-2.5-.3-.2-.5-.4-.8-.5-1.2-.8-2.4-1.6-3.6-2.3-.4-.2-.8-.5-1.2-.7-2.8-1.6-5.6-3.2-8.6-4.7-26.3,8.9-45.6,33.3-47,62.6,3.3.5,6.7.8,10.1.8,29.2,0,53.8-19.7,61.7-46.7Z"/>
      <path class="st14" d="M144.7,94.1c2.8,16.9,12,31.5,25.1,41.3,1.1-3.2,1.7-6.6,1.7-10.1,0-15.9-11.6-29-26.8-31.2Z"/>
    </g>
    <path class="st1" d="M431.4,264.2c-.3-1.5-.8-3-1.5-4.4-1.2-2.8-2.8-5.5-4.6-8.2-2.9-4.3-6.2-8.3-8.9-11.9-6-8-11.4-17.1-12.2-27.3,0-.8,0-1.6,0-2.4,0-7.8,2.6-15.5,3.3-23.2,1.2-12.9.1-26-3.1-38.6-4.9-19-14.8-37.1-28.7-51-35.2-35.2-100-46.1-147.2-31.1,0,0-.1,0-.1,0,.9.3,1.8.7,2.7,1,22.8,8.8,43.2,23.6,56.9,41.8,11.9,15.9,19.4,35.5,21.7,55.3,1.6,13.2,1,26.6-1.9,39.4-1.7,7.7-5.3,15.1-6.3,22.9-.1.8-.2,1.7-.3,2.5,0,1.6,0,3.3,0,4.9.7,8.7,4.3,16.9,8.5,24.4,2.2,3.9,4.9,8.4,7.2,13.1,2.2,4.5,4,9.2,4.4,13.6,1.2,12.9-14.8,11.8-22.7,15.1-8.4,3.5-7.4,11.8-6.4,19.4.4,3.5,1.3,9.6.1,13-1.3,3.8-8.5,6.4-10.8,7.1-.4.2-.7.2-.7.2,0,0,6.6,11.3-.6,16.2-5.5,3.7-11.3,7.4-13.9,14.2-1.5,4-1.3,8.3-1.6,12.5-.9,14.6-16.8,18.8-28.7,17.8-11.2-.9,45.1,45.1,68.1,50.8.9-6.2-4.6-60.5,10.7-67.7,7.3-3.5,19.7,1.9,34.6,3.7,2.5.3,4.2.2,6,.1,3.7,0,7.8-.3,12.1-.9,4.3-.6,8.4-2.2,12.1-4.4,5.7-3.4,8.6-8.9,8.1-15.5-.3-4.1-1.1-8.2,0-12.4,1.7-6.9,6.9-11.3,11.9-15.6,6.5-5.6-1.5-15.8-1.5-15.8,0,0,.3-.1.7-.3,2.2-1,9-4.4,9.8-8.3.7-3.5-.9-9.3-1.8-12.7-2-7.3-4.1-15.3,3.8-19.7,7.4-4.2,23.4-5.2,20.6-17.6Z"/>
  </g>
</svg>