<?xml version="1.0" encoding="UTF-8"?>
<svg id="Layer_1" xmlns="http://www.w3.org/2000/svg" version="1.1" viewBox="0 0 192 192">
  <!-- Generator: Adobe Illustrator 30.1.0, SVG Export Plug-In . SVG Version: 2.1.1 Build 136)  -->
  <defs>
    <style>
      .st0 {
        fill: #d99f9f;
      }

      .st1 {
        fill: #900;
      }

      .st2 {
        fill: #eacccc;
      }

      .st3 {
        fill: #8b97b1;
      }

      .st4 {
        fill: #860808;
      }

      .st5 {
        fill: #a9a2ad;
      }

      .st6 {
        fill: #770505;
      }

      .st7 {
        fill: #560809;
      }

      .st8 {
        fill: #deacac;
      }

      .st9 {
        fill: #fff;
      }

      .st10 {
        fill: #85464d;
      }

      .st11 {
        fill: #673539;
      }

      .st12 {
        fill: #650303;
      }

      .st13 {
        fill: #a23c3c;
      }

      .st14 {
        fill: #796577;
      }

      .st15 {
        fill: #9e0d0d;
      }

      .st16 {
        fill: #c06161;
      }

      .st17 {
        fill: #7a3638;
      }

      .st18 {
        fill: #b1b9cb;
      }

      .st19 {
        fill: #a28d92;
      }
    </style>
  </defs>
  <rect class="st9" x="-.5" y="-.5" width="192" height="192"/>
  <g>
    <g>
      <path class="st15" d="M87.8,61.3c3.6-1.4,7.5-2.1,11.5-2.1s9.2,1,13.3,2.9c-1-9.2-5-18-11.8-24.3-2.9,10.1-12.2,17.5-23.1,17.5s-2.6-.1-3.8-.3c0,.2,0,.5,0,.7.4,0,.8,0,1.2,0,5.1,0,9.6,2.2,12.7,5.7Z"/>
      <path class="st18" d="M67,88.4c-5.5-2.9-9.2-8.7-9.2-15.4s0-.8,0-1.2c-9.9,2.5-17.2,11.6-17.2,22.4s3.1,13.3,8,17.5c1.9-2.7,5-4.5,8.5-4.5,5.4,0,9.9,4.3,10.2,9.7,2.8-.5,5.4-1.5,7.7-2.9-5.2-5.8-8.3-13.5-8.3-21.9s0-2.4.2-3.6Z"/>
      <path class="st0" d="M72.7,73.1c1.2-1.7,2.6-3.3,4.1-4.8-1.9-3.6-2.9-7.7-2.9-12.1s0-.4,0-.6c-8.6.6-15.4,7.5-16,16.1,1.8-.5,3.6-.7,5.6-.7,3.3,0,6.5.7,9.3,2Z"/>
      <path class="st4" d="M76.8,68.3c3.1-3,6.9-5.4,11-7-3.2-3.5-7.7-5.7-12.7-5.7s-.8,0-1.2,0c0,.2,0,.4,0,.6,0,4.4,1.1,8.5,2.9,12.1Z"/>
      <path class="st19" d="M67,88.4c.6-5.7,2.6-10.9,5.7-15.3-2.8-1.3-6-2-9.3-2s-3.8.2-5.6.7c0,.4,0,.8,0,1.2,0,6.7,3.7,12.5,9.2,15.4Z"/>
      <path class="st8" d="M53.9,35c-.5,0-1.1-.1-1.7-.1-6.5,0-11.7,5.3-11.7,11.8s5.2,11.8,11.7,11.8,9.5-3.4,11.1-8c-4.9-3.7-8.3-9.2-9.4-15.5Z"/>
      <path class="st2" d="M45.5,70.8c0-4.5-3.6-8.1-8-8.1s-8,3.6-8,8.1,3.6,8.1,8,8.1,8-3.6,8-8.1Z"/>
      <path class="st2" d="M48.6,111.7c-1.1,1.7-1.8,3.7-1.8,5.9,0,5.7,4.6,10.4,10.3,10.4s10.3-4.7,10.3-10.4,0-.5,0-.7c-1.3.2-2.6.3-3.9.3-5.6,0-10.8-2.1-14.8-5.5Z"/>
      <path class="st5" d="M57.1,107.2c-3.5,0-6.6,1.8-8.5,4.5,4,3.4,9.1,5.5,14.8,5.5s2.7-.1,3.9-.3c-.4-5.4-4.8-9.7-10.2-9.7Z"/>
      <path class="st16" d="M110.7,100.2c1.4,0,2.8,0,4.1.3.5,1-1.3-2.5-2.6-4.7-1.8-3.2-3.2-6.8-3-10.5.2-3.2,1.7-6.6,1.3-5.4-3.3,1.6-7,2.4-10.9,2.4s-6.3-.6-9.1-1.7c-1.3,2.6-3.1,4.8-5.4,6.5.7,2.2,1.1,4.5,1.1,7,0,8.4-4.5,15.8-11.1,19.8,1.8,2,3.9,3.9,6.1,5.4,5.2-11.3,16.4-19.1,29.5-19.1Z"/>
      <path class="st6" d="M87.8,61.3c2.8,3.1,4.5,7.2,4.5,11.7s-.6,5.3-1.7,7.6c2.8,1.1,5.9,1.7,9.1,1.7s7.6-.9,10.9-2.4c.4-1.2.9-2.5,1.2-3.7,1.1-4.6,1.4-9.4.8-14.1-4.1-1.8-8.5-2.9-13.3-2.9s-7.9.8-11.5,2.1Z"/>
      <path class="st10" d="M86.2,94.1c0-2.4-.4-4.8-1.1-7-2.8,2.1-6.3,3.3-10.1,3.3s-5.7-.7-8.1-2c-.1,1.2-.2,2.4-.2,3.6,0,8.4,3.1,16.1,8.3,21.9,6.7-4,11.1-11.4,11.1-19.8Z"/>
      <path class="st13" d="M76.8,68.3c-1.5,1.5-2.9,3.1-4.1,4.8,5.9,2.7,10.5,7.8,12.4,14.1,2.3-1.7,4.2-3.9,5.4-6.5-5.9-2.3-10.8-6.7-13.8-12.3Z"/>
      <path class="st12" d="M87.8,61.3c-4.1,1.6-7.9,4-11,7,2.9,5.6,7.8,10.1,13.8,12.3,1.1-2.3,1.7-4.9,1.7-7.6,0-4.5-1.7-8.6-4.5-11.7Z"/>
      <path class="st17" d="M72.7,73.1c-3.1,4.4-5.1,9.7-5.7,15.3,2.4,1.3,5.1,2,8.1,2s7.3-1.2,10.1-3.3c-2-6.3-6.5-11.4-12.4-14.1Z"/>
      <path class="st3" d="M81.2,119.3c-1.9,4.2-3,8.8-3,13.8s.9,8.7,2.5,12.6c1.9.4,4,.6,6.6.6s3.1-.4,4.5-1c2.2-.9,3.5-2.8,3.7-5.2.1-1.5,0-3,.6-4.5,1-2.4,3.1-3.7,5.1-5,2.6-1.7.3-5.8.3-5.8,0,0,.1,0,.3,0-.8,0-1.6.1-2.5.1-6.7,0-12.9-2-18.1-5.6Z"/>
      <path class="st11" d="M116.4,105.4c0-.2,0-.4,0-.6,0-.1,0-.2,0-.3,0,0,0-.2,0-.3,0-.2,0-.3-.1-.5,0,0,0,0,0-.1-.3-1-.7-2.1-1.2-3.1-1.3-.2-2.7-.3-4.1-.3-13.1,0-24.4,7.8-29.5,19.1,5.2,3.5,11.4,5.6,18.1,5.6s1.6,0,2.5-.1c0,0,0,0,0,0,0,0,0,0,.1,0,0,0,0,0,0,0,0,0,0,0,.1,0,0,0,.1,0,.2,0,0,0,0,0,0,0,0,0,.2,0,.3-.1,0,0,0,0,0,0,.1,0,.2,0,.3-.1,0,0,0,0,0,0,0,0,.2,0,.3-.1,0,0,0,0,0,0,0,0,.2,0,.3-.1,0,0,0,0,0,0,.1,0,.2-.1.3-.2,0,0,0,0,0,0,.2-.1.5-.3.7-.4,0,0,0,0,0,0,0,0,.1-.1.2-.2,0,0,0,0,0,0,0,0,.1-.1.2-.2,0,0,0,0,0,0,0,0,0-.1.1-.2,0,0,0,0,0,0,0,0,.1-.2.1-.3.4-1.2.2-3.4,0-4.7-.3-2.7-.7-5.7,2.4-6.9,1.4-.6,3.6-.7,5.4-1.3.2,0,.4-.2.6-.2.6-.3,1.2-.6,1.6-1.1.5-.6.8-1.5.7-2.6Z"/>
      <path class="st3" d="M91.5,31.5c1.1.5,2.2,1.1,3.2,1.8-10.9-6.5-26.1-9-39.9-10.1-.8,2.4-1.2,5-1.2,7.7s.1,2.7.3,4.1c5.7.8,10,5.7,10,11.7s-.2,2.6-.6,3.8c3,2.3,6.6,3.9,10.6,4.5.5-11,7.7-20.1,17.6-23.5Z"/>
      <path class="st7" d="M100.8,37.7s0,0-.1-.1c-.3-.2-.5-.5-.8-.7-.6-.5-1.2-1-1.8-1.4-.4-.3-.9-.6-1.3-.9,0,0-.2-.1-.3-.2-.4-.3-.9-.6-1.4-.9-.2,0-.3-.2-.5-.3-1-.6-2.1-1.2-3.2-1.8-9.9,3.3-17.1,12.5-17.6,23.5,1.2.2,2.5.3,3.8.3,11,0,20.2-7.4,23.1-17.5Z"/>
      <path class="st14" d="M53.9,35c1.1,6.3,4.5,11.8,9.4,15.5.4-1.2.6-2.5.6-3.8,0-6-4.4-10.9-10-11.7Z"/>
    </g>
    <path class="st1" d="M161.5,98.8c-.1-.5-.3-1.1-.5-1.7-.4-1-1.1-2.1-1.7-3.1-1.1-1.6-2.3-3.1-3.3-4.4-2.3-3-4.3-6.4-4.6-10.2,0-.3,0-.6,0-.9,0-2.9,1-5.8,1.3-8.7.5-4.8,0-9.7-1.2-14.5-1.9-7.1-5.5-13.9-10.7-19.1-13.2-13.2-37.5-17.3-55.2-11.7,0,0,0,0,0,0,.3.1.7.2,1,.4,8.5,3.3,16.2,8.8,21.3,15.7,4.5,5.9,7.3,13.3,8.2,20.7.6,4.9.4,10-.7,14.8-.7,2.9-2,5.7-2.4,8.6,0,.3,0,.6-.1.9,0,.6,0,1.2,0,1.8.3,3.2,1.6,6.3,3.2,9.1.8,1.5,1.9,3.2,2.7,4.9.8,1.7,1.5,3.4,1.6,5.1.4,4.8-5.5,4.4-8.5,5.6-3.2,1.3-2.8,4.4-2.4,7.3.2,1.3.5,3.6,0,4.9-.5,1.4-3.2,2.4-4.1,2.7-.2,0-.3,0-.3,0,0,0,2.5,4.3-.2,6.1-2.1,1.4-4.2,2.8-5.2,5.3-.6,1.5-.5,3.1-.6,4.7-.3,5.5-6.3,7-10.8,6.7-4.2-.4,16.9,16.9,25.5,19.1.4-2.3-1.7-22.7,4-25.4,2.7-1.3,7.4.7,13,1.4.9.1,1.6,0,2.2,0,1.4,0,2.9-.1,4.6-.4,1.6-.2,3.1-.8,4.5-1.7,2.1-1.3,3.2-3.3,3.1-5.8-.1-1.5-.4-3.1,0-4.6.6-2.6,2.6-4.2,4.5-5.9,2.4-2.1-.5-5.9-.5-5.9,0,0,.1,0,.3-.1.8-.4,3.4-1.7,3.7-3.1.3-1.3-.3-3.5-.7-4.7-.7-2.7-1.5-5.7,1.4-7.4,2.8-1.6,8.8-2,7.7-6.6Z"/>
  </g>
</svg>